<svg xmlns="http://www.w3.org/2000/svg" xmlns:xlink="http://www.w3.org/1999/xlink" viewBox="0 0 1536 360"><defs><linearGradient id="a" y1="180" x2="1536" y2="180" gradientUnits="userSpaceOnUse"><stop offset="0.00002" stop-color="#7109b6"/><stop offset="1" stop-color="#e81f71"/></linearGradient></defs><title>mergeui</title><rect width="1536" height="360" style="fill:url(#a)"/><g style="opacity:0.15"><path d="M832.66115,186.57882a7.12848,7.12848,0,0,0,3.85258-1.1194,6.74964,6.74964,0,0,0,2.55788-2.99234,6.452,6.452,0,0,0,.39963-3.85694,6.61542,6.61542,0,0,0-1.89364-3.42138,7.01118,7.01118,0,0,0-3.5455-1.82938,7.16809,7.16809,0,0,0-4.004.37677,6.87667,6.87667,0,0,0-3.111,2.45876,6.49088,6.49088,0,0,0,.85481,8.42387A7.07261,7.07261,0,0,0,832.66115,186.57882Z" style="fill:#fff"/><path d="M827.05,212.09758a7.10811,7.10811,0,0,0,3.84823-1.12593,6.71966,6.71966,0,0,0,2.55241-2.99562,6.45377,6.45377,0,0,0,.39311-3.85584,6.60054,6.60054,0,0,0-1.89472-3.417,7.0214,7.0214,0,0,0-3.54768-1.82611,7.16419,7.16419,0,0,0-4.00178.38,6.87484,6.87484,0,0,0-3.10885,2.45876,6.477,6.477,0,0,0-.64246,6.26344,6.63729,6.63729,0,0,0,1.49943,2.16586,6.947,6.947,0,0,0,2.2497,1.44717A7.16861,7.16861,0,0,0,827.05,212.09758Z" style="fill:#fff"/><path d="M811.154,233.13546a6.61321,6.61321,0,1,0-6.85908-6.60755A6.736,6.736,0,0,0,811.154,233.13546Z" style="fill:#fff"/><path d="M787.68891,246.23511a7.11448,7.11448,0,0,0,3.84932-1.12593,6.74415,6.74415,0,0,0,2.55132-2.9967,6.44847,6.44847,0,0,0,.39092-3.85912,6.6,6.6,0,0,0-1.89907-3.417,7.00807,7.00807,0,0,0-3.54987-1.82393,7.19225,7.19225,0,0,0-4.00394.38548,6.86819,6.86819,0,0,0-3.10559,2.46531,6.5101,6.5101,0,0,0-.637,6.26454,6.64431,6.64431,0,0,0,1.50162,2.16475,6.91442,6.91442,0,0,0,2.2497,1.44174A7.139,7.139,0,0,0,787.68891,246.23511Z" style="fill:#fff"/><path d="M760.77306,249.02164a6.73092,6.73092,0,1,0-6.98213-6.72622A6.85728,6.85728,0,0,0,760.77306,249.02164Z" style="fill:#fff"/><path d="M735.00276,241.01594a7.23853,7.23853,0,0,0,3.90922-1.14228,6.84488,6.84488,0,0,0,2.59053-3.04243,6.55281,6.55281,0,0,0,.40072-3.91682,6.702,6.702,0,0,0-1.9252-3.47039,7.137,7.137,0,0,0-3.60214-1.85552,7.28078,7.28078,0,0,0-4.066.38548,6.98737,6.98737,0,0,0-3.15677,2.498,6.58534,6.58534,0,0,0-.65444,6.36145,6.7602,6.7602,0,0,0,1.52558,2.20069,7.04963,7.04963,0,0,0,2.28345,1.47A7.27653,7.27653,0,0,0,735.00276,241.01594Z" style="fill:#fff"/><path d="M714.86348,223.61614a7.30388,7.30388,0,0,0,3.94677-1.15426,6.8993,6.8993,0,0,0,2.61591-3.07074,6.62162,6.62162,0,0,0,.40508-3.956,6.76617,6.76617,0,0,0-1.94459-3.503,7.18856,7.18856,0,0,0-3.6372-1.874,7.34773,7.34773,0,0,0-4.10456.38984,7.05339,7.05339,0,0,0-3.188,2.52083,6.655,6.655,0,0,0,.88344,8.64164A7.24287,7.24287,0,0,0,714.86348,223.61614Z" style="fill:#fff"/><path d="M703.90811,199.90607a7.42861,7.42861,0,0,0,4.01472-1.17385,7.02766,7.02766,0,0,0,2.66143-3.1241,6.7288,6.7288,0,0,0,.41127-4.02354,6.88579,6.88579,0,0,0-1.97768-3.564,7.3191,7.3191,0,0,0-3.7-1.9056,7.48735,7.48735,0,0,0-4.17512.39636,7.17145,7.17145,0,0,0-3.243,2.5644,6.76109,6.76109,0,0,0-.67153,6.5335,6.93186,6.93186,0,0,0,1.56619,2.26058,7.24505,7.24505,0,0,0,2.34628,1.51033A7.47929,7.47929,0,0,0,703.90811,199.90607Z" style="fill:#fff"/><path d="M703.90658,173.88968a7.48545,7.48545,0,0,0,4.045-1.18148,7.07878,7.07878,0,0,0,2.68167-3.14805,6.77874,6.77874,0,0,0,.41434-4.05295,6.93943,6.93943,0,0,0-1.99272-3.59233,7.37245,7.37245,0,0,0-3.72779-1.91976,7.53945,7.53945,0,0,0-4.20671.39964,7.22554,7.22554,0,0,0-3.26729,2.5829,6.81152,6.81152,0,0,0,.90935,8.854A7.43729,7.43729,0,0,0,703.90658,173.88968Z" style="fill:#fff"/><path d="M714.91651,150.06746a7.48711,7.48711,0,0,0,4.06329-1.151,7.0825,7.0825,0,0,0,2.71205-3.13391,6.78311,6.78311,0,0,0,.4421-4.05839,6.94011,6.94011,0,0,0-1.97693-3.60867,7.3716,7.3716,0,0,0-3.72681-1.93827,7.5498,7.5498,0,0,0-4.21584.38766,7.2363,7.2363,0,0,0-3.27852,2.5829,6.81083,6.81083,0,0,0,.88039,8.83765A7.43177,7.43177,0,0,0,714.91651,150.06746Z" style="fill:#fff"/><path d="M735.02455,132.61322a7.47477,7.47477,0,0,0,4.04424-1.18257,7.07446,7.07446,0,0,0,2.682-3.14805,6.77765,6.77765,0,0,0,.41488-4.05295,6.94,6.94,0,0,0-1.99272-3.59158,7.37136,7.37136,0,0,0-3.72844-1.91986,7.53765,7.53765,0,0,0-4.20649.3992,7.23116,7.23116,0,0,0-3.26784,2.58356,6.81285,6.81285,0,0,0,.91033,8.85354A7.4347,7.4347,0,0,0,735.02455,132.61322Z" style="fill:#fff"/><path d="M760.79593,124.54848a7.47535,7.47535,0,0,0,4.04424-1.18224,7.075,7.075,0,0,0,2.682-3.148,6.77736,6.77736,0,0,0,.41379-4.053,6.93929,6.93929,0,0,0-1.99163-3.59179,7.37114,7.37114,0,0,0-3.72845-1.91965,7.53484,7.53484,0,0,0-4.20648.3992,7.229,7.229,0,0,0-3.26784,2.58356,6.82346,6.82346,0,0,0,.906,8.85736A7.42233,7.42233,0,0,0,760.79593,124.54848Z" style="fill:#fff"/><path d="M787.69653,127.165a6.90155,6.90155,0,1,0-7.15854-6.89676A7.03108,7.03108,0,0,0,787.69653,127.165Z" style="fill:#fff"/><path d="M811.12129,140.13545a7.29594,7.29594,0,0,0,3.94842-1.15425,6.89342,6.89342,0,0,0,2.61557-3.07292,6.6085,6.6085,0,0,0,.40291-3.95713,6.76265,6.76265,0,0,0-1.94809-3.5038,7.18763,7.18763,0,0,0-3.64024-1.8701,7.353,7.353,0,0,0-4.10522.39472,7.04957,7.04957,0,0,0-3.18508,2.52661,6.6512,6.6512,0,0,0-.65116,6.42385,6.84846,6.84846,0,0,0,1.54082,2.217,7.11762,7.11762,0,0,0,2.30522,1.47983A7.30528,7.30528,0,0,0,811.12129,140.13545Z" style="fill:#fff"/><path d="M827.05431,161.19182a6.78368,6.78368,0,1,0-7.0344-6.77959A6.91028,6.91028,0,0,0,827.05431,161.19182Z" style="fill:#fff"/><path d="M854.36979,189.12036a9.22354,9.22354,0,1,0-9.56723-9.2166A9.39648,9.39648,0,0,0,854.36979,189.12036Z" style="fill:#fff"/><path d="M850.12411,214.87a9.78753,9.78753,0,0,0,5.29213-1.54735,9.27192,9.27192,0,0,0,3.50848-4.11939,8.87886,8.87886,0,0,0,.54229-5.30191,9.07388,9.07388,0,0,0-2.608-4.69977,9.64516,9.64516,0,0,0-4.87726-2.51213,9.86572,9.86572,0,0,0-5.50446.52159,9.46606,9.46606,0,0,0-4.2751,3.38,8.92311,8.92311,0,0,0,1.18475,11.58935A9.71418,9.71418,0,0,0,850.12411,214.87Z" style="fill:#fff"/><path d="M837.78885,238.21306a9.77832,9.77832,0,0,0,5.29213-1.54734,9.26326,9.26326,0,0,0,3.5085-4.11829,8.88258,8.88258,0,0,0,.54229-5.303,9.075,9.075,0,0,0-2.60795-4.69867,9.63688,9.63688,0,0,0-4.87727-2.51215,9.8664,9.8664,0,0,0-5.50448.52268,9.46353,9.46353,0,0,0-4.27618,3.38,8.92506,8.92506,0,0,0,1.18475,11.58824A9.70893,9.70893,0,0,0,837.78885,238.21306Z" style="fill:#fff"/><path d="M818.57058,256.73227a9.77831,9.77831,0,0,0,5.29214-1.54736,9.27174,9.27174,0,0,0,3.50847-4.11937,8.87893,8.87893,0,0,0,.54229-5.30194,9.08136,9.08136,0,0,0-2.608-4.70085,9.65377,9.65377,0,0,0-4.87727-2.51212,9.87582,9.87582,0,0,0-5.50446.52268,9.45681,9.45681,0,0,0-4.2751,3.38108,8.92449,8.92449,0,0,0,1.18365,11.58934A9.71876,9.71876,0,0,0,818.57058,256.73227Z" style="fill:#fff"/><path d="M794.3792,268.6374a9.78578,9.78578,0,0,0,5.29323-1.54737,9.25468,9.25468,0,0,0,3.5074-4.11937,8.84546,8.84546,0,0,0,.54227-5.30193,9.07758,9.07758,0,0,0-2.60578-4.70085,9.66267,9.66267,0,0,0-4.87724-2.51213,9.86428,9.86428,0,0,0-5.50448.52269,9.46315,9.46315,0,0,0-4.27618,3.38,8.92656,8.92656,0,0,0,1.18475,11.58935A9.7135,9.7135,0,0,0,794.3792,268.6374Z" style="fill:#fff"/><path d="M767.56137,272.75458a9.22407,9.22407,0,1,0-9.56722-9.21768A9.39765,9.39765,0,0,0,767.56137,272.75458Z" style="fill:#fff"/><path d="M740.7076,268.6374a9.78755,9.78755,0,0,0,5.29213-1.54737,9.26388,9.26388,0,0,0,3.5085-4.11937,8.87065,8.87065,0,0,0,.54228-5.30193,9.08721,9.08721,0,0,0-2.60687-4.70085,9.653,9.653,0,0,0-4.87835-2.51213,9.86139,9.86139,0,0,0-5.50338.52269,9.45447,9.45447,0,0,0-4.27509,3.38,8.92309,8.92309,0,0,0,1.18474,11.58935A9.70964,9.70964,0,0,0,740.7076,268.6374Z" style="fill:#fff"/><path d="M716.56916,256.79543a9.22406,9.22406,0,1,0-9.56711-9.21768A9.39681,9.39681,0,0,0,716.56916,256.79543Z" style="fill:#fff"/><path d="M697.351,238.2773a9.22458,9.22458,0,1,0-9.56711-9.21876A9.398,9.398,0,0,0,697.351,238.2773Z" style="fill:#fff"/><path d="M685.02,214.87a9.787,9.787,0,0,0,5.29246-1.54735,9.2609,9.2609,0,0,0,3.50849-4.11939,8.86379,8.86379,0,0,0,.54217-5.30191,9.0725,9.0725,0,0,0-2.60708-4.69977,9.64828,9.64828,0,0,0-4.87769-2.51213,9.86359,9.86359,0,0,0-5.50393.52159,9.45745,9.45745,0,0,0-4.27509,3.38,8.925,8.925,0,0,0,1.18463,11.58935A9.71216,9.71216,0,0,0,685.02,214.87Z" style="fill:#fff"/><path d="M680.74729,189.06047a9.17122,9.17122,0,1,0-9.51256-9.16433A9.34324,9.34324,0,0,0,680.74729,189.06047Z" style="fill:#fff"/><path d="M685.02,163.22919a9.78607,9.78607,0,0,0,5.29246-1.54626,9.2609,9.2609,0,0,0,3.50849-4.11937,8.86654,8.86654,0,0,0,.54217-5.303,9.07364,9.07364,0,0,0-2.60708-4.69867,9.63993,9.63993,0,0,0-4.87769-2.51213,9.864,9.864,0,0,0-5.50393.52268,9.4574,9.4574,0,0,0-4.27509,3.38,8.92492,8.92492,0,0,0,1.18463,11.58933A9.715,9.715,0,0,0,685.02,163.22919Z" style="fill:#fff"/><path d="M697.36317,139.91549a9.78555,9.78555,0,0,0,5.29247-1.54626,9.26221,9.26221,0,0,0,3.50871-4.11937,8.86682,8.86682,0,0,0,.54216-5.30259,9.08158,9.08158,0,0,0-2.6073-4.69954,9.64281,9.64281,0,0,0-4.87747-2.5117,9.86115,9.86115,0,0,0-5.504.52225,9.45874,9.45874,0,0,0-4.27519,3.38031,8.92544,8.92544,0,0,0,1.18463,11.58945A9.71513,9.71513,0,0,0,697.36317,139.91549Z" style="fill:#fff"/><path d="M716.58135,121.41305a9.78275,9.78275,0,0,0,5.29235-1.5469,9.25777,9.25777,0,0,0,3.5085-4.11895,8.86507,8.86507,0,0,0,.54228-5.303,9.07847,9.07847,0,0,0-2.60687-4.69933,9.64458,9.64458,0,0,0-4.8777-2.51191,9.86152,9.86152,0,0,0-5.50392.52224,9.45874,9.45874,0,0,0-4.2753,3.38054,8.92486,8.92486,0,0,0,1.18462,11.589A9.71246,9.71246,0,0,0,716.58135,121.41305Z" style="fill:#fff"/><path d="M740.7076,109.54027a9.78618,9.78618,0,0,0,5.29213-1.54691,9.25721,9.25721,0,0,0,3.5085-4.11915,8.87266,8.87266,0,0,0,.54228-5.30281,9.08576,9.08576,0,0,0-2.60687-4.69933,9.64674,9.64674,0,0,0-4.87835-2.51191,9.85847,9.85847,0,0,0-5.50338.52224,9.45531,9.45531,0,0,0-4.27509,3.38033,8.88572,8.88572,0,0,0-.88093,8.61148,9.16078,9.16078,0,0,0,2.06567,2.97775,9.54813,9.54813,0,0,0,3.09035,1.98956A9.83905,9.83905,0,0,0,740.7076,109.54027Z" style="fill:#fff"/><path d="M767.61908,105.44366a9.17138,9.17138,0,1,0-9.51277-9.165A9.34328,9.34328,0,0,0,767.61908,105.44366Z" style="fill:#fff"/><path d="M794.3792,109.54027a9.78441,9.78441,0,0,0,5.29323-1.54691,9.248,9.248,0,0,0,3.5074-4.11915,8.84746,8.84746,0,0,0,.54227-5.30281,9.07612,9.07612,0,0,0-2.60578-4.69933,9.65635,9.65635,0,0,0-4.87724-2.51191,9.86137,9.86137,0,0,0-5.50448.52224,9.464,9.464,0,0,0-4.27618,3.38033,8.88866,8.88866,0,0,0-.87983,8.61148,9.19074,9.19074,0,0,0,2.06458,2.97775,9.576,9.576,0,0,0,3.09143,1.98956A9.83346,9.83346,0,0,0,794.3792,109.54027Z" style="fill:#fff"/><path d="M818.61085,121.47556a9.22389,9.22389,0,1,0-9.56829-9.21745A9.39643,9.39643,0,0,0,818.61085,121.47556Z" style="fill:#fff"/><path d="M837.78885,139.97756a9.78762,9.78762,0,0,0,5.29213-1.54735,9.26909,9.26909,0,0,0,3.5085-4.11828,8.8843,8.8843,0,0,0,.54229-5.30357,9.08082,9.08082,0,0,0-2.60795-4.69933,9.64068,9.64068,0,0,0-4.87727-2.51191,9.865,9.865,0,0,0-5.50448.52235,9.46424,9.46424,0,0,0-4.27618,3.38044,8.92623,8.92623,0,0,0,1.18475,11.58911A9.71384,9.71384,0,0,0,837.78885,139.97756Z" style="fill:#fff"/><path d="M850.12411,163.29235a9.78762,9.78762,0,0,0,5.29213-1.54735,9.26924,9.26924,0,0,0,3.50848-4.11828,8.88248,8.88248,0,0,0,.54229-5.303,9.08236,9.08236,0,0,0-2.608-4.69976,9.63681,9.63681,0,0,0-4.87726-2.51213,9.86607,9.86607,0,0,0-5.50446.52268,9.466,9.466,0,0,0-4.2751,3.38,8.92308,8.92308,0,0,0,1.18475,11.58933A9.71313,9.71313,0,0,0,850.12411,163.29235Z" style="fill:#fff"/><path d="M876.05991,187.55668a7.66258,7.66258,0,1,0-7.948-7.65727A7.80725,7.80725,0,0,0,876.05991,187.55668Z" style="fill:#fff"/><path d="M872.67774,213.56654a8.22681,8.22681,0,0,0,4.445-1.30017,7.77262,7.77262,0,0,0,2.94768-3.4595,7.44988,7.44988,0,0,0,.45408-4.45583,7.62505,7.62505,0,0,0-2.1898-3.94734,8.09089,8.09089,0,0,0-4.09761-2.10922,8.28745,8.28745,0,0,0-4.62136.43884,7.93028,7.93028,0,0,0-3.59124,2.83879,7.49312,7.49312,0,0,0,.99527,9.736A8.15783,8.15783,0,0,0,872.67774,213.56654Z" style="fill:#fff"/><path d="M862.63358,237.97569a7.71546,7.71546,0,1,0-8.00355-7.71063A7.86067,7.86067,0,0,0,862.63358,237.97569Z" style="fill:#fff"/><path d="M846.68639,259.17688a8.23207,8.23207,0,0,0,4.44605-1.29907,7.78241,7.78241,0,0,0,2.9466-3.46166,7.45219,7.45219,0,0,0,.45627-4.45367,7.63026,7.63026,0,0,0-2.19091-3.94734,8.08763,8.08763,0,0,0-4.0965-2.10922,8.2667,8.2667,0,0,0-4.62355.43884,7.94174,7.94174,0,0,0-3.59124,2.83881,7.4971,7.4971,0,0,0,.99527,9.73382A8.15789,8.15789,0,0,0,846.68639,259.17688Z" style="fill:#fff"/><path d="M825.72148,275.89066a8.232,8.232,0,0,0,4.44605-1.29908,7.79149,7.79149,0,0,0,2.94662-3.46056,7.45654,7.45654,0,0,0,.45624-4.45478,7.63038,7.63038,0,0,0-2.19088-3.94731,8.09629,8.09629,0,0,0-4.09652-2.10924,8.28488,8.28488,0,0,0-4.62353.43776,7.95123,7.95123,0,0,0-3.59124,2.83988,7.49713,7.49713,0,0,0,.99525,9.73383A8.153,8.153,0,0,0,825.72148,275.89066Z" style="fill:#fff"/><path d="M801.0989,287.05531a7.71537,7.71537,0,1,0-8.00134-7.71061A7.86023,7.86023,0,0,0,801.0989,287.05531Z" style="fill:#fff"/><path d="M774.40738,291.89883a7.66205,7.66205,0,1,0-7.948-7.65618A7.80443,7.80443,0,0,0,774.40738,291.89883Z" style="fill:#fff"/><path d="M747.26941,290.24911a8.15813,8.15813,0,0,0,4.41447-1.29036,7.72587,7.72587,0,0,0,2.9281-3.43772,7.4051,7.4051,0,0,0,.4519-4.42426,7.58647,7.58647,0,0,0-2.17565-3.9201,8.04132,8.04132,0,0,0-4.06929-2.09508,8.23469,8.23469,0,0,0-4.592.43558,7.89517,7.89517,0,0,0-3.5662,2.82028,7.447,7.447,0,0,0,.98873,9.66958A8.10435,8.10435,0,0,0,747.26941,290.24911Z" style="fill:#fff"/><path d="M721.33251,282.13886a7.66308,7.66308,0,1,0-7.94745-7.65726A7.80726,7.80726,0,0,0,721.33251,282.13886Z" style="fill:#fff"/><path d="M698.444,268.06354a8.11007,8.11007,0,0,0,4.389-1.274,7.67441,7.67441,0,0,0,2.91307-3.41049,7.34975,7.34975,0,0,0,.45473-4.39595,7.53382,7.53382,0,0,0-2.15692-3.89724,7.99278,7.99278,0,0,0-4.0413-2.08417,8.168,8.168,0,0,0-4.56223.43011,7.84876,7.84876,0,0,0-3.54465,2.8007,7.39618,7.39618,0,0,0,.97589,9.59988A8.04713,8.04713,0,0,0,698.444,268.06354Z" style="fill:#fff"/><path d="M679.77086,248.97591a8.11716,8.11716,0,0,0,4.3904-1.2773,7.66382,7.66382,0,0,0,2.913-3.41267,7.34388,7.34388,0,0,0,.45245-4.39595,7.5286,7.5286,0,0,0-2.16085-3.89832,7.99155,7.99155,0,0,0-4.04467-2.08091,8.17312,8.17312,0,0,0-4.56343.43555,7.84488,7.84488,0,0,0-3.54181,2.80614,7.40658,7.40658,0,0,0,.98329,9.5988A8.03244,8.03244,0,0,0,679.77086,248.97591Z" style="fill:#fff"/><path d="M666.66858,225.93118a7.54434,7.54434,0,1,0-7.82506-7.53857A7.68631,7.68631,0,0,0,666.66858,225.93118Z" style="fill:#fff"/><path d="M659.89748,200.53546a8.03961,8.03961,0,0,0,4.34881-1.27075,7.61584,7.61584,0,0,0,2.882-3.38762,7.282,7.282,0,0,0,.44286-4.35785,7.45492,7.45492,0,0,0-2.14527-3.858,7.91591,7.91591,0,0,0-4.01026-2.06132,8.097,8.097,0,0,0-4.52205.43448,7.76872,7.76872,0,0,0-3.509,2.78218,7.33178,7.33178,0,0,0,.98449,9.51495A7.97836,7.97836,0,0,0,659.89748,200.53546Z" style="fill:#fff"/><path d="M659.94115,174.29476a7.98693,7.98693,0,0,0,4.32093-1.25552,7.556,7.556,0,0,0,2.868-3.35713,7.23553,7.23553,0,0,0,.44776-4.32735,7.40778,7.40778,0,0,0-2.1235-3.83625,7.86088,7.86088,0,0,0-3.97868-2.05262,8.03782,8.03782,0,0,0-4.49146.4236,7.7153,7.7153,0,0,0-3.48954,2.75713,7.28066,7.28066,0,0,0,.96064,9.4507A7.92579,7.92579,0,0,0,659.94115,174.29476Z" style="fill:#fff"/><path d="M666.71236,148.91539a7.98221,7.98221,0,0,0,4.32223-1.25662,7.55685,7.55685,0,0,0,2.86788-3.35931,7.2331,7.2331,0,0,0,.44537-4.32844,7.40255,7.40255,0,0,0-2.1272-3.83625,7.86216,7.86216,0,0,0-3.98206-2.05043,8.0524,8.0524,0,0,0-4.49265.429,7.72187,7.72187,0,0,0-3.48682,2.76368,7.27033,7.27033,0,0,0-.71335,7.02459,7.47907,7.47907,0,0,0,1.6815,2.425,7.78693,7.78693,0,0,0,2.5166,1.61922A8.01182,8.01182,0,0,0,666.71236,148.91539Z" style="fill:#fff"/><path d="M679.82694,125.955a7.98217,7.98217,0,0,0,4.31723-1.26173,7.55312,7.55312,0,0,0,2.86188-3.36,7.23265,7.23265,0,0,0,.44222-4.32562,7.40551,7.40551,0,0,0-2.12655-3.83331,7.86472,7.86472,0,0,0-3.97879-2.049,8.04413,8.04413,0,0,0-4.4896.426,7.71556,7.71556,0,0,0-3.48748,2.75747,7.2801,7.2801,0,0,0,.96631,9.45332A7.92268,7.92268,0,0,0,679.82694,125.955Z" style="fill:#fff"/><path d="M698.39111,106.85119a7.98255,7.98255,0,0,0,4.31723-1.26172,7.55456,7.55456,0,0,0,2.862-3.36,7.233,7.233,0,0,0,.4421-4.32573,7.40472,7.40472,0,0,0-2.12654-3.83331,7.865,7.865,0,0,0-3.97869-2.0489,8.04363,8.04363,0,0,0-4.48971.426A7.71534,7.71534,0,0,0,691.93,95.205a7.2802,7.2802,0,0,0,.96653,9.45332A7.922,7.922,0,0,0,698.39111,106.85119Z" style="fill:#fff"/><path d="M721.36518,92.7935a7.47884,7.47884,0,1,0-7.75679-7.47367A7.61912,7.61912,0,0,0,721.36518,92.7935Z" style="fill:#fff"/><path d="M747.25635,84.69828a7.96445,7.96445,0,0,0,4.30339-1.26412,7.543,7.543,0,0,0,2.85187-3.35245,7.23086,7.23086,0,0,0,.43993-4.31352,7.386,7.386,0,0,0-2.119-3.82352,7.84893,7.84893,0,0,0-3.96475-2.04771,8.03092,8.03092,0,0,0-4.47762.41662,7.70585,7.70585,0,0,0-3.48453,2.74125,7.23355,7.23355,0,0,0-.735,7.01479,7.45521,7.45521,0,0,0,1.68238,2.435,7.77345,7.77345,0,0,0,2.52518,1.626A8.00661,8.00661,0,0,0,747.25635,84.69828Z" style="fill:#fff"/><path d="M774.38452,83.11739a7.5444,7.5444,0,1,0-7.82386-7.53922A7.68614,7.68614,0,0,0,774.38452,83.11739Z" style="fill:#fff"/><path d="M801.088,88.037a7.54453,7.54453,0,1,0-7.82605-7.53933A7.686,7.686,0,0,0,801.088,88.037Z" style="fill:#fff"/><path d="M825.72476,99.19992a8.04039,8.04039,0,0,0,4.35674-1.24975,7.62407,7.62407,0,0,0,2.90089-3.37106,7.296,7.296,0,0,0,.466-4.35545,7.44912,7.44912,0,0,0-2.12556-3.87077,7.91009,7.91009,0,0,0-3.99849-2.08037,8.09714,8.09714,0,0,0-4.52338.4116,7.77215,7.77215,0,0,0-3.52482,2.76487,7.32085,7.32085,0,0,0,.93647,9.51572A7.99223,7.99223,0,0,0,825.72476,99.19992Z" style="fill:#fff"/><path d="M846.63414,115.943a8.094,8.094,0,0,0,4.37416-1.28591,7.66794,7.66794,0,0,0,2.89543-3.40961,7.3377,7.3377,0,0,0,.4432-4.38518,7.51087,7.51087,0,0,0-2.16042-3.88373,7.97183,7.97183,0,0,0-4.03444-2.074,8.15433,8.15433,0,0,0-4.54948.43414A7.82035,7.82035,0,0,0,840.068,104.135a7.35051,7.35051,0,0,0-.7263,7.12456,7.59281,7.59281,0,0,0,1.71177,2.46455,7.91962,7.91962,0,0,0,2.56,1.64481A8.14672,8.14672,0,0,0,846.63414,115.943Z" style="fill:#fff"/><path d="M862.67823,137.15509a8.10916,8.10916,0,0,0,4.38833-1.27621,7.66959,7.66959,0,0,0,2.91393-3.41267,7.352,7.352,0,0,0,.453-4.39682,7.53921,7.53921,0,0,0-2.1604-3.89691,7.99313,7.99313,0,0,0-4.04642-2.0819,8.17125,8.17125,0,0,0-4.56255.43579,7.84629,7.84629,0,0,0-3.54225,2.80679,7.40564,7.40564,0,0,0,.98437,9.59836A8.035,8.035,0,0,0,862.67823,137.15509Z" style="fill:#fff"/><path d="M872.67884,161.57512a7.6625,7.6625,0,1,0-7.94583-7.65725A7.80583,7.80583,0,0,0,872.67884,161.57512Z" style="fill:#fff"/><path d="M897.77182,185.71423a5.79976,5.79976,0,1,0-6.01518-5.79522A5.90806,5.90806,0,0,0,897.77182,185.71423Z" style="fill:#fff"/><path d="M894.9352,211.80467a5.79977,5.79977,0,1,0-6.01518-5.79631A5.909,5.909,0,0,0,894.9352,211.80467Z" style="fill:#fff"/><path d="M886.52767,236.73758a5.79972,5.79972,0,1,0-6.01408-5.79629A5.90923,5.90923,0,0,0,886.52767,236.73758Z" style="fill:#fff"/><path d="M872.88028,259.448a6.18572,6.18572,0,0,0,3.34189-.97566,5.84213,5.84213,0,0,0,2.21377-2.60033,5.59649,5.59649,0,0,0,.343-3.34951,5.71671,5.71671,0,0,0-1.64536-2.96621,6.09254,6.09254,0,0,0-3.07946-1.58656,6.2239,6.2239,0,0,0-3.47691.32995,5.97567,5.97567,0,0,0-2.69942,2.13426,5.63573,5.63573,0,0,0,.74917,7.31645A6.12875,6.12875,0,0,0,872.88028,259.448Z" style="fill:#fff"/><path d="M854.6943,278.92329a5.79915,5.79915,0,1,0-6.013-5.79411A5.90769,5.90769,0,0,0,854.6943,278.92329Z" style="fill:#fff"/><path d="M832.68946,294.34235a5.79923,5.79923,0,1,0-6.01516-5.79413A5.90717,5.90717,0,0,0,832.68946,294.34235Z" style="fill:#fff"/><path d="M807.79575,305.01373a5.79928,5.79928,0,1,0-6.01628-5.79629A5.90919,5.90919,0,0,0,807.79575,305.01373Z" style="fill:#fff"/><path d="M781.20549,310.45613a5.79979,5.79979,0,1,0-6.01626-5.79521A5.90831,5.90831,0,0,0,781.20549,310.45613Z" style="fill:#fff"/><path d="M753.95971,310.39733a6.11888,6.11888,0,0,0,3.3114-.968,5.79811,5.79811,0,0,0,2.19525-2.57639,5.54644,5.54644,0,0,0,.33866-3.319,5.67669,5.67669,0,0,0-1.6312-2.94008,6.03411,6.03411,0,0,0-3.05114-1.57239,6.17814,6.17814,0,0,0-3.44424.32666,5.93342,5.93342,0,0,0-2.67547,2.11576,5.587,5.587,0,0,0,.74155,7.25219A6.07818,6.07818,0,0,0,753.95971,310.39733Z" style="fill:#fff"/><path d="M727.3074,304.956a6.14046,6.14046,0,0,0,3.31575-.96262,5.78716,5.78716,0,0,0,2.20069-2.57418,5.54036,5.54036,0,0,0,.34519-3.319,5.69116,5.69116,0,0,0-1.62793-2.94552,6.035,6.035,0,0,0-3.05223-1.5735,6.16237,6.16237,0,0,0-3.44533.32343,5.92611,5.92611,0,0,0-2.67765,2.11576,5.58308,5.58308,0,0,0,.73611,7.24672A6.084,6.084,0,0,0,727.3074,304.956Z" style="fill:#fff"/><path d="M702.475,294.29988a6.13584,6.13584,0,0,0,3.31161-.96694,5.79972,5.79972,0,0,0,2.19548-2.57857,5.54826,5.54826,0,0,0,.33919-3.31792,5.67886,5.67886,0,0,0-1.63131-2.94008,6.02769,6.02769,0,0,0-3.052-1.57239,6.18736,6.18736,0,0,0-3.44392.32666,5.9207,5.9207,0,0,0-2.67514,2.11577,5.584,5.584,0,0,0,.74134,7.2511A6.0779,6.0779,0,0,0,702.475,294.29988Z" style="fill:#fff"/><path d="M680.46373,278.81114a5.681,5.681,0,1,0-5.89256-5.67762A5.78787,5.78787,0,0,0,680.46373,278.81114Z" style="fill:#fff"/><path d="M662.27981,259.32062a5.681,5.681,0,1,0-5.89267-5.67651A5.78756,5.78756,0,0,0,662.27981,259.32062Z" style="fill:#fff"/><path d="M648.62447,236.56445a6.00226,6.00226,0,0,0,3.24356-.94736,5.68222,5.68222,0,0,0,2.15017-2.52411,5.43575,5.43575,0,0,0,.33234-3.25041,5.56053,5.56053,0,0,0-1.59788-2.8791,5.89465,5.89465,0,0,0-2.98918-1.53972,6.04688,6.04688,0,0,0-3.37325.319,5.80708,5.80708,0,0,0-2.62015,2.07112,5.472,5.472,0,0,0,.7262,7.1041A5.95491,5.95491,0,0,0,648.62447,236.56445Z" style="fill:#fff"/><path d="M640.21836,211.61629a5.989,5.989,0,0,0,3.24487-.94954,5.65906,5.65906,0,0,0,2.15017-2.52629,5.42986,5.42986,0,0,0,.32994-3.25041,5.56668,5.56668,0,0,0-1.60168-2.88018,5.90156,5.90156,0,0,0-2.99267-1.53646,6.03173,6.03173,0,0,0-3.37423.32558,5.79788,5.79788,0,0,0-2.61743,2.07765,5.47012,5.47012,0,0,0,.73752,7.09756A5.95776,5.95776,0,0,0,640.21836,211.61629Z" style="fill:#fff"/><path d="M637.37923,185.52693a5.6287,5.6287,0,1,0-5.83833-5.62425A5.73388,5.73388,0,0,0,637.37923,185.52693Z" style="fill:#fff"/><path d="M640.21836,159.46917a5.99408,5.99408,0,0,0,3.24356-.94845,5.67061,5.67061,0,0,0,2.15017-2.52411,5.43653,5.43653,0,0,0,.33223-3.25042,5.56768,5.56768,0,0,0-1.59776-2.88019,5.9099,5.9099,0,0,0-2.98919-1.53863,6.03745,6.03745,0,0,0-3.37324.32014,5.79926,5.79926,0,0,0-2.62015,2.07112,5.47055,5.47055,0,0,0,.72619,7.103A5.95555,5.95555,0,0,0,640.21836,159.46917Z" style="fill:#fff"/><path d="M648.62589,134.4622a5.94381,5.94381,0,0,0,3.21317-.93974,5.62041,5.62041,0,0,0,2.13036-2.50015,5.38625,5.38625,0,0,0,.32918-3.22014,5.513,5.513,0,0,0-1.583-2.85308,5.85572,5.85572,0,0,0-2.96142-1.52513,5.9877,5.9877,0,0,0-3.34177.31709,5.74278,5.74278,0,0,0-2.59554,2.05239,5.41523,5.41523,0,0,0-.53814,5.23,5.53979,5.53979,0,0,0,1.25334,1.80978,5.76936,5.76936,0,0,0,1.87827,1.20761A5.96656,5.96656,0,0,0,648.62589,134.4622Z" style="fill:#fff"/><path d="M662.22678,111.7388a5.92567,5.92567,0,0,0,3.202-.94323,5.60888,5.60888,0,0,0,2.11914-2.49775,5.3708,5.3708,0,0,0,.32286-3.211,5.5011,5.5011,0,0,0-1.5823-2.84306,5.8432,5.8432,0,0,0-2.95477-1.51784,5.9732,5.9732,0,0,0-3.33187.31862,5.72822,5.72822,0,0,0-2.58737,2.04759,5.38347,5.38347,0,0,0-.531,5.21788,5.553,5.553,0,0,0,1.25422,1.8052,5.79342,5.79342,0,0,0,1.87674,1.20423A5.9612,5.9612,0,0,0,662.22678,111.7388Z" style="fill:#fff"/><path d="M680.44239,92.25972a5.94335,5.94335,0,0,0,3.21851-.93364,5.62449,5.62449,0,0,0,2.13613-2.50026,5.38318,5.38318,0,0,0,.33223-3.22254,5.51246,5.51246,0,0,0-1.58339-2.85645,5.85624,5.85624,0,0,0-2.9648-1.52557,5.9858,5.9858,0,0,0-3.34471.32025,5.74218,5.74218,0,0,0-2.59511,2.05795,5.429,5.429,0,0,0,.72108,7.03189A5.88278,5.88278,0,0,0,680.44239,92.25972Z" style="fill:#fff"/><path d="M702.45179,76.8448a5.92732,5.92732,0,0,0,3.20587-.93691,5.60966,5.60966,0,0,0,2.12514-2.495,5.36961,5.36961,0,0,0,.32842-3.21209,5.49881,5.49881,0,0,0-1.57926-2.84643,5.84156,5.84156,0,0,0-2.95434-1.52154,5.97514,5.97514,0,0,0-3.33393.31644,5.72993,5.72993,0,0,0-2.58956,2.0476,5.38416,5.38416,0,0,0-.53313,5.216,5.54873,5.54873,0,0,0,1.25073,1.80357,5.79308,5.79308,0,0,0,1.872,1.20521A5.96251,5.96251,0,0,0,702.45179,76.8448Z" style="fill:#fff"/><path d="M727.28779,66.17069a5.94081,5.94081,0,0,0,3.21776-.93374,5.62314,5.62314,0,0,0,2.13645-2.50026,5.376,5.376,0,0,0,.33212-3.22243,5.50471,5.50471,0,0,0-1.58328-2.85645,5.85445,5.85445,0,0,0-2.96512-1.52568,5.985,5.985,0,0,0-3.34407.32036,5.73618,5.73618,0,0,0-2.59489,2.05794,5.4289,5.4289,0,0,0,.72087,7.0319A5.88227,5.88227,0,0,0,727.28779,66.17069Z" style="fill:#fff"/><path d="M754.00109,60.78567a5.99723,5.99723,0,0,0,3.24389-.9479,5.67581,5.67581,0,0,0,2.15061-2.52443,5.43107,5.43107,0,0,0,.33211-3.24987,5.57081,5.57081,0,0,0-1.59743-2.88A5.91471,5.91471,0,0,0,755.1401,49.644a6.04071,6.04071,0,0,0-3.37237.32,5.79557,5.79557,0,0,0-2.61993,2.07178,5.46929,5.46929,0,0,0,.72521,7.10245A5.95456,5.95456,0,0,0,754.00109,60.78567Z" style="fill:#fff"/><path d="M781.19461,60.78578a5.62884,5.62884,0,1,0-5.83769-5.6249A5.7343,5.7343,0,0,0,781.19461,60.78578Z" style="fill:#fff"/><path d="M807.78485,66.21425a5.99436,5.99436,0,0,0,3.245-.94877,5.68694,5.68694,0,0,0,2.15062-2.52662,5.45327,5.45327,0,0,0,.32994-3.25161,5.57453,5.57453,0,0,0-1.6018-2.88,5.91228,5.91228,0,0,0-2.99234-1.53625,6.04321,6.04321,0,0,0-3.37455.32537,5.81024,5.81024,0,0,0-2.61884,2.07754,5.47382,5.47382,0,0,0,.73827,7.09745A5.95449,5.95449,0,0,0,807.78485,66.21425Z" style="fill:#fff"/><path d="M832.67531,76.95848a5.68125,5.68125,0,1,0-5.89212-5.67729A5.78726,5.78726,0,0,0,832.67531,76.95848Z" style="fill:#fff"/><path d="M854.68557,92.37776a5.68135,5.68135,0,1,0-5.89322-5.6774A5.78811,5.78811,0,0,0,854.68557,92.37776Z" style="fill:#fff"/><path d="M872.901,111.92108a6.12681,6.12681,0,0,0,3.30487-.98057,5.802,5.802,0,0,0,2.18326-2.5828,5.55166,5.55166,0,0,0,.32777-3.31586,5.68694,5.68694,0,0,0-1.63774-2.93386,6.03794,6.03794,0,0,0-3.05223-1.56423,6.17416,6.17416,0,0,0-3.441.33113,5.92452,5.92452,0,0,0-2.67,2.11544,5.56087,5.56087,0,0,0-.54663,5.39156,5.72307,5.72307,0,0,0,1.29906,1.8664,6.0049,6.0049,0,0,0,1.94263,1.2431A6.16074,6.16074,0,0,0,872.901,111.92108Z" style="fill:#fff"/><path d="M886.50044,134.63424a6.11336,6.11336,0,0,0,3.30377-.98111,5.78,5.78,0,0,0,2.18328-2.58291,5.54273,5.54273,0,0,0,.32887-3.31564,5.679,5.679,0,0,0-1.63773-2.93365,6.03756,6.03756,0,0,0-3.05224-1.56444,6.17412,6.17412,0,0,0-3.441.33124,5.91421,5.91421,0,0,0-2.67,2.11533,5.57,5.57,0,0,0-.54663,5.3922,5.74469,5.74469,0,0,0,1.29909,1.86532,5.959,5.959,0,0,0,1.9437,1.24355A6.15146,6.15146,0,0,0,886.50044,134.63424Z" style="fill:#fff"/><path d="M894.93628,159.56608a6.12438,6.12438,0,0,0,3.31139-.967,5.80076,5.80076,0,0,0,2.19527-2.57745,5.5272,5.5272,0,0,0,.33864-3.31794,5.6679,5.6679,0,0,0-1.63119-2.94116,6.02831,6.02831,0,0,0-3.05115-1.5713,6.16474,6.16474,0,0,0-3.44316.32667,5.90171,5.90171,0,0,0-2.67545,2.11576,5.582,5.582,0,0,0,.74155,7.2511A6.07552,6.07552,0,0,0,894.93628,159.56608Z" style="fill:#fff"/><path d="M919.48373,183.79447a4.2003,4.2003,0,0,0,2.26821-.661,3.96441,3.96441,0,0,0,1.50271-1.76731,3.8,3.8,0,0,0,.233-2.27148,3.89792,3.89792,0,0,0-1.11613-2.01449,4.1396,4.1396,0,0,0-2.09071-1.07585,4.22749,4.22749,0,0,0-2.3597.22323,4.05555,4.05555,0,0,0-1.83263,1.44935,3.82669,3.82669,0,0,0,.50852,4.96654A4.16372,4.16372,0,0,0,919.48373,183.79447Z" style="fill:#fff"/><path d="M917.026,209.92954a4.18742,4.18742,0,0,0,2.26931-.66315,3.95986,3.95986,0,0,0,1.50269-1.76513,3.78376,3.78376,0,0,0,.23195-2.27147,3.8877,3.8877,0,0,0-1.11722-2.01559,4.14344,4.14344,0,0,0-2.09074-1.07585,4.22968,4.22968,0,0,0-2.3575.22323,4.05652,4.05652,0,0,0-1.83265,1.45043,3.82672,3.82672,0,0,0,.50744,4.96547A4.16191,4.16191,0,0,0,917.026,209.92954Z" style="fill:#fff"/><path d="M909.81741,235.21855a4.18762,4.18762,0,0,0,2.26931-.66315,3.96827,3.96827,0,0,0,1.50379-1.76513,3.7878,3.7878,0,0,0,.23085-2.27367,3.87993,3.87993,0,0,0-1.11615-2.01231,4.13245,4.13245,0,0,0-2.09071-1.07694,4.22408,4.22408,0,0,0-2.3586.22431,4.04124,4.04124,0,0,0-1.83155,1.44717,3.824,3.824,0,0,0,.50636,4.96764A4.16464,4.16464,0,0,0,909.81741,235.21855Z" style="fill:#fff"/><path d="M897.97437,258.85566a4.19753,4.19753,0,0,0,2.2671-.66207,3.96139,3.96139,0,0,0,1.50382-1.76513,3.80883,3.80883,0,0,0,.233-2.27365,3.88888,3.88888,0,0,0-1.11723-2.01341,4.13256,4.13256,0,0,0-2.09071-1.07694,4.22784,4.22784,0,0,0-2.35968.22431,4.04318,4.04318,0,0,0-1.83155,1.44825,3.82615,3.82615,0,0,0,.50741,4.96766A4.16643,4.16643,0,0,0,897.97437,258.85566Z" style="fill:#fff"/><path d="M881.97056,280.07537a3.88358,3.88358,0,1,0-4.02792-3.88089A3.959,3.959,0,0,0,881.97056,280.07537Z" style="fill:#fff"/><path d="M862.26116,298.22106a4.19688,4.19688,0,0,0,2.26931-.66314,3.97168,3.97168,0,0,0,1.50271-1.76513,3.79509,3.79509,0,0,0,.233-2.27257,3.89816,3.89816,0,0,0-1.11831-2.01449,4.147,4.147,0,0,0-2.08853-1.07694,4.23573,4.23573,0,0,0-2.3597.22431,4.06141,4.06141,0,0,0-1.83263,1.44935,3.82523,3.82523,0,0,0,.50852,4.96545A4.15337,4.15337,0,0,0,862.26116,298.22106Z" style="fill:#fff"/><path d="M839.55182,312.66882a4.20409,4.20409,0,0,0,2.26821-.66207,3.96821,3.96821,0,0,0,1.50379-1.76513,3.79976,3.79976,0,0,0,.23193-2.27365,3.8888,3.8888,0,0,0-1.11723-2.01341,4.13251,4.13251,0,0,0-2.09071-1.07693,4.22382,4.22382,0,0,0-2.3586.22431,4.04189,4.04189,0,0,0-1.83155,1.44825,3.82389,3.82389,0,0,0-.68928,2.18546,3.86341,3.86341,0,0,0,1.19562,2.78217A4.1644,4.1644,0,0,0,839.55182,312.66882Z" style="fill:#fff"/><path d="M814.49259,322.98521a4.19223,4.19223,0,0,0,2.26711-.66315,3.974,3.974,0,0,0,1.50381-1.76513,3.80626,3.80626,0,0,0,.233-2.27365,3.89218,3.89218,0,0,0-1.11723-2.01341,4.12408,4.12408,0,0,0-2.09071-1.07694,4.22784,4.22784,0,0,0-2.35968.22431,4.05038,4.05038,0,0,0-1.83155,1.44825,3.82465,3.82465,0,0,0,.50743,4.96656A4.16838,4.16838,0,0,0,814.49259,322.98521Z" style="fill:#fff"/><path d="M787.95677,328.812a4.19307,4.19307,0,0,0,2.26821-.66315,3.96834,3.96834,0,0,0,1.50381-1.76515,3.79482,3.79482,0,0,0,.23193-2.27255,3.89635,3.89635,0,0,0-1.11723-2.01451,4.15375,4.15375,0,0,0-2.09071-1.07694,4.24468,4.24468,0,0,0-2.3586.22433,4.0585,4.0585,0,0,0-1.83156,1.44934,3.826,3.826,0,0,0,.50635,4.96655A4.16446,4.16446,0,0,0,787.95677,328.812Z" style="fill:#fff"/><path d="M760.76653,330a4.18376,4.18376,0,0,0,2.26822-.66315,3.975,3.975,0,0,0,1.50379-1.76513,3.79116,3.79116,0,0,0,.23194-2.27147,3.88793,3.88793,0,0,0-1.11723-2.01449,4.13666,4.13666,0,0,0-2.09072-1.077,4.22414,4.22414,0,0,0-2.35859.22433,4.04547,4.04547,0,0,0-1.83156,1.44934,3.82317,3.82317,0,0,0,.50744,4.96547A4.15984,4.15984,0,0,0,760.76653,330Z" style="fill:#fff"/><path d="M733.79625,326.4142a3.83126,3.83126,0,1,0-3.97345-3.82862A3.90244,3.90244,0,0,0,733.79625,326.4142Z" style="fill:#fff"/><path d="M707.86033,318.31921a4.07361,4.07361,0,0,0,2.212-.649,3.85772,3.85772,0,0,0,1.463-1.72376,3.70151,3.70151,0,0,0,.2192-2.21812,3.78934,3.78934,0,0,0-1.09905-1.96005,4.0107,4.0107,0,0,0-2.04519-1.03664,4.10489,4.10489,0,0,0-2.299.233,3.93753,3.93753,0,0,0-1.77494,1.42757,3.72183,3.72183,0,0,0,.52846,4.81844A4.04689,4.04689,0,0,0,707.86033,318.31921Z" style="fill:#fff"/><path d="M683.89382,305.87506a3.83128,3.83128,0,1,0-3.97378-3.82862A3.90379,3.90379,0,0,0,683.89382,305.87506Z" style="fill:#fff"/><path d="M662.62685,289.51518a4.08994,4.08994,0,0,0,2.228-.60653,3.8658,3.8658,0,0,0,1.49955-1.69871,3.70307,3.70307,0,0,0,.262-2.217,3.78,3.78,0,0,0-1.06442-1.97964,4.0066,4.0066,0,0,0-2.02963-1.07368,4.12436,4.12436,0,0,0-2.30589.19819,3.95719,3.95719,0,0,0-1.79943,1.40362,3.72224,3.72224,0,0,0,.44765,4.81954A4.04784,4.04784,0,0,0,662.62685,289.51518Z" style="fill:#fff"/><path d="M644.69044,269.70453a4.01789,4.01789,0,0,0,2.1775-.637,3.80172,3.80172,0,0,0,1.44347-1.69435,3.647,3.647,0,0,0,.22312-2.1811,3.72882,3.72882,0,0,0-1.07259-1.93283,3.95384,3.95384,0,0,0-2.00687-1.03446,4.06963,4.06963,0,0,0-2.2644.21451,3.8989,3.8989,0,0,0-1.759,1.39163,3.6724,3.6724,0,0,0,.48739,4.76837A4.00206,4.00206,0,0,0,644.69044,269.70453Z" style="fill:#fff"/><path d="M630.69851,247.177a4.017,4.017,0,0,0,2.18132-.6294,3.81409,3.81409,0,0,0,1.44935-1.69327,3.64646,3.64646,0,0,0,.22878-2.18218,3.73392,3.73392,0,0,0-1.06953-1.93719,3.96139,3.96139,0,0,0-2.00655-1.03664,4.05673,4.05673,0,0,0-2.26647.21235,3.88978,3.88978,0,0,0-1.76111,1.39163,3.66929,3.66929,0,0,0,.48163,4.76291A3.99078,3.99078,0,0,0,630.69851,247.177Z" style="fill:#fff"/><path d="M621.14558,222.561a3.95463,3.95463,0,0,0,2.13537-.62287,3.75066,3.75066,0,0,0,1.41872-1.6595,3.58261,3.58261,0,0,0,.226-2.13755,3.67226,3.67226,0,0,0-1.04263-1.90126,3.90054,3.90054,0,0,0-1.96134-1.02466,3.997,3.997,0,0,0-2.22182.196,3.82671,3.82671,0,0,0-1.73675,1.34808,3.59516,3.59516,0,0,0-.38744,3.48345,3.70684,3.70684,0,0,0,.83211,1.2174,3.87638,3.87638,0,0,0,1.25451.81451A3.99,3.99,0,0,0,621.14558,222.561Z" style="fill:#fff"/><path d="M616.28565,196.74822a3.94225,3.94225,0,0,0,2.13967-.62614,3.74173,3.74173,0,0,0,1.41847-1.66386,3.58584,3.58584,0,0,0,.21917-2.14408,3.66193,3.66193,0,0,0-1.054-1.89906,3.90165,3.90165,0,0,0-1.97193-1.017,3.99107,3.99107,0,0,0-2.22519.21125,3.8224,3.8224,0,0,0-1.72841,1.36768,3.60722,3.60722,0,0,0,.479,4.68452A3.92688,3.92688,0,0,0,616.28565,196.74822Z" style="fill:#fff"/><path d="M616.28565,170.50533a3.9514,3.9514,0,0,0,2.13967-.62613,3.73878,3.73878,0,0,0,1.41847-1.665,3.585,3.585,0,0,0,.21917-2.14408,3.6661,3.6661,0,0,0-1.054-1.89906,3.89141,3.89141,0,0,0-1.97193-1.016,3.99107,3.99107,0,0,0-2.22519.21124,3.82739,3.82739,0,0,0-1.72841,1.36659,3.60869,3.60869,0,0,0,.479,4.68562A3.92692,3.92692,0,0,0,616.28565,170.50533Z" style="fill:#fff"/><path d="M621.14536,144.67841a3.9516,3.9516,0,0,0,2.13968-.62612,3.7388,3.7388,0,0,0,1.41844-1.665,3.58537,3.58537,0,0,0,.2192-2.14407,3.67317,3.67317,0,0,0-1.05407-1.90017,3.89805,3.89805,0,0,0-1.9719-1.01487,3.98144,3.98144,0,0,0-2.22519.21125,3.82019,3.82019,0,0,0-1.72841,1.3666,3.60719,3.60719,0,0,0,.479,4.68451A3.923,3.923,0,0,0,621.14536,144.67841Z" style="fill:#fff"/><path d="M630.7,120.13075a3.95566,3.95566,0,0,0,2.13961-.62537,3.74376,3.74376,0,0,0,1.41842-1.66527,3.58455,3.58455,0,0,0,.21931-2.14386,3.67207,3.67207,0,0,0-1.05407-1.9,3.89879,3.89879,0,0,0-1.972-1.01541,3.98672,3.98672,0,0,0-2.22509.211,3.82391,3.82391,0,0,0-1.72844,1.36681,3.60816,3.60816,0,0,0,.47891,4.68528A3.92675,3.92675,0,0,0,630.7,120.13075Z" style="fill:#fff"/><path d="M644.73552,97.55893a3.66069,3.66069,0,1,0-3.79684-3.65811A3.72954,3.72954,0,0,0,644.73552,97.55893Z" style="fill:#fff"/><path d="M662.62663,77.85a3.953,3.953,0,0,0,2.12851-.64442,3.73893,3.73893,0,0,0,1.40035-1.67333,3.58319,3.58319,0,0,0,.20264-2.14049,3.67212,3.67212,0,0,0-1.06343-1.8897,3.90014,3.90014,0,0,0-1.97236-1.00464,3.9886,3.9886,0,0,0-2.21965.21768A3.82335,3.82335,0,0,0,659.3809,72.082a3.59315,3.59315,0,0,0-.34932,3.4866,3.70722,3.70722,0,0,0,.84543,1.20869,3.86606,3.86606,0,0,0,1.26325.80155A3.98013,3.98013,0,0,0,662.62663,77.85Z" style="fill:#fff"/><path d="M683.88293,61.47507a3.71311,3.71311,0,1,0-3.85128-3.71049A3.78274,3.78274,0,0,0,683.88293,61.47507Z" style="fill:#fff"/><path d="M707.90508,49.048a3.95546,3.95546,0,0,0,2.13962-.62526,3.74261,3.74261,0,0,0,1.41853-1.66528,3.58365,3.58365,0,0,0,.2192-2.14386,3.671,3.671,0,0,0-1.054-1.89994,3.89881,3.89881,0,0,0-1.972-1.01552,3.98677,3.98677,0,0,0-2.22509.21125,3.82445,3.82445,0,0,0-1.72845,1.36648,3.60833,3.60833,0,0,0,.47892,4.68539A3.92639,3.92639,0,0,0,707.90508,49.048Z" style="fill:#fff"/><path d="M733.77774,40.953a3.71317,3.71317,0,1,0-3.8515-3.71059A3.78336,3.78336,0,0,0,733.77774,40.953Z" style="fill:#fff"/><path d="M760.75565,37.42123a3.95339,3.95339,0,0,0,2.13972-.62537,3.74409,3.74409,0,0,0,1.41885-1.66527,3.59452,3.59452,0,0,0,.21888-2.14387,3.66448,3.66448,0,0,0-1.05407-1.89991,3.90079,3.90079,0,0,0-1.972-1.0155,3.985,3.985,0,0,0-2.22465.21114,3.82419,3.82419,0,0,0-1.72921,1.36666,3.60822,3.60822,0,0,0,.47913,4.68527A3.92813,3.92813,0,0,0,760.75565,37.42123Z" style="fill:#fff"/><path d="M787.93934,38.59367a3.71321,3.71321,0,1,0-3.85149-3.7107A3.78338,3.78338,0,0,0,787.93934,38.59367Z" style="fill:#fff"/><path d="M814.5296,44.4369a3.71317,3.71317,0,1,0-3.85149-3.71059A3.78322,3.78322,0,0,0,814.5296,44.4369Z" style="fill:#fff"/><path d="M839.56815,54.80709a4.02062,4.02062,0,0,0,2.16693-.6393,3.80579,3.80579,0,0,0,1.43847-1.68891A3.65822,3.65822,0,0,0,843.4,50.30551a3.7399,3.7399,0,0,0-1.06169-1.93076,3.95863,3.95863,0,0,0-1.99162-1.04177,4.05813,4.05813,0,0,0-2.25843.19579,3.89608,3.89608,0,0,0-1.76839,1.36768,3.67884,3.67884,0,0,0-.40617,3.54845,3.75964,3.75964,0,0,0,.84937,1.24638,3.9153,3.9153,0,0,0,1.28492.83106A4.04129,4.04129,0,0,0,839.56815,54.80709Z" style="fill:#fff"/><path d="M862.3069,69.25472a4.02376,4.02376,0,0,0,2.1822-.63092,3.80306,3.80306,0,0,0,1.44933-1.694,3.6439,3.6439,0,0,0,.22651-2.18458,3.73148,3.73148,0,0,0-1.07259-1.93674,3.972,3.972,0,0,0-2.01013-1.034,4.05455,4.05455,0,0,0-2.26713.218,3.897,3.897,0,0,0-1.75969,1.39643,3.69514,3.69514,0,0,0-.65553,2.1028,3.63835,3.63835,0,0,0,.2951,1.44216,3.73815,3.73815,0,0,0,.84608,1.22264,3.908,3.908,0,0,0,1.2686.81538A4.0257,4.0257,0,0,0,862.3069,69.25472Z" style="fill:#fff"/><path d="M881.97164,87.4613a3.83122,3.83122,0,1,0-3.97346-3.82863A3.90418,3.90418,0,0,0,881.97164,87.4613Z" style="fill:#fff"/><path d="M897.96782,108.69342a3.83127,3.83127,0,1,0-3.97346-3.82852A3.90334,3.90334,0,0,0,897.96782,108.69342Z" style="fill:#fff"/><path d="M909.76405,132.27021a4.07617,4.07617,0,0,0,2.20723-.64573,3.86843,3.86843,0,0,0,1.4646-1.71787,3.69828,3.69828,0,0,0,.22433-2.212,3.7677,3.7677,0,0,0-1.08674-1.96027,4.0219,4.0219,0,0,0-2.0341-1.04775,4.113,4.113,0,0,0-2.29653.21789,3.95077,3.95077,0,0,0-1.78364,1.40993,3.72625,3.72625,0,0,0,.49437,4.83424A4.05394,4.05394,0,0,0,909.76405,132.27021Z" style="fill:#fff"/><path d="M917.02712,157.60385a3.83127,3.83127,0,1,0-3.97344-3.82863A3.9041,3.9041,0,0,0,917.02712,157.60385Z" style="fill:#fff"/></g><path d="M563.88962,50h-184a7.99993,7.99993,0,0,0-8,8v52h-52a7.99993,7.99993,0,0,0-8,8V302a8,8,0,0,0,8,8h184a8,8,0,0,0,8-8V250h52a8,8,0,0,0,8-8V58A7.99993,7.99993,0,0,0,563.88962,50Zm-78.4,240h-147.2a6.39991,6.39991,0,0,1-6.4-6.4V136.4a6.39991,6.39991,0,0,1,6.4-6.4h33.6V242a8,8,0,0,0,8,8h112v33.6A6.39991,6.39991,0,0,1,485.48962,290Zm66.4-66.4a6.39991,6.39991,0,0,1-6.4,6.4h-33.6V118a7.99993,7.99993,0,0,0-8-8h-112V76.4a6.39991,6.39991,0,0,1,6.4-6.4h147.2a6.39991,6.39991,0,0,1,6.4,6.4Z" style="fill:#fff"/><path d="M672.70218,225.627l-40.9043-102.832H631.417q.15236,2.81836.26661,5.90332t.19043,6.43653q.0747,3.353.07617,7.00781V225.627h-7.46485V114.26367H636.3682l39.457,99.17578h.457L716.044,114.26367H727.6221V225.627h-7.69336V141.22852q0-2.97071.07618-6.09375.0747-3.12306.19043-6.208.11426-3.085.2666-5.97949h-.457L678.94827,225.627Z" style="fill:#fff"/><path d="M794.19632,141.22852q10.58643,0,17.63379,4.95117a29.66939,29.66939,0,0,1,10.51172,13.55859,52.50027,52.50027,0,0,1,3.46582,19.72852v5.56054H766.01273q0,17.064,7.88379,26.20313,7.88379,9.14063,22.585,9.14062a62.45955,62.45955,0,0,0,13.36816-1.25683,68.76857,68.76857,0,0,0,12.60645-4.30371v7.084a58.4645,58.4645,0,0,1-12.1875,3.999,69.89278,69.89278,0,0,1-14.01563,1.25684q-12.56835,0-21.06152-5.21777a32.55171,32.55171,0,0,1-12.79688-14.73926q-4.30371-9.52149-4.30371-22.24219a57.21718,57.21718,0,0,1,4.15137-22.31836,35.731,35.731,0,0,1,12.1875-15.65332Q782.46585,141.22852,794.19632,141.22852Zm-.07617,6.62695q-11.88282,0-19.2334,7.88379-7.35206,7.88379-8.64551,22.7373H817.8096a45.576,45.576,0,0,0-2.58984-15.99609,22.9659,22.9659,0,0,0-7.80762-10.77832Q802.19438,147.85693,794.12015,147.85547Z" style="fill:#fff"/><path d="M883.39359,141.38086a47.37232,47.37232,0,0,1,6.16992.38086,40.94471,40.94471,0,0,1,5.4082,1.0664l-1.21875,7.084a38.6765,38.6765,0,0,0-5.10351-1.02832,42.453,42.453,0,0,0-5.56055-.34277,23.93432,23.93432,0,0,0-10.47363,2.209,21.61965,21.61965,0,0,0-7.80762,6.32227,29.12382,29.12382,0,0,0-4.875,9.90234,46.52844,46.52844,0,0,0-1.67578,12.94922V225.627h-7.76953V142.82812h6.62695l.76172,15.61524h.457a28.50942,28.50942,0,0,1,5.37012-8.64551,25.64258,25.64258,0,0,1,8.417-6.13183A26.60849,26.60849,0,0,1,883.39359,141.38086Z" style="fill:#fff"/><path d="M936.10452,263.10352q-15.61522,0-24.26074-6.01758t-8.64551-16.834a21.291,21.291,0,0,1,5.25586-14.43457q5.25586-6.05567,14.24414-7.27441a15.57315,15.57315,0,0,1-5.82714-4.57031,10.62167,10.62167,0,0,1-2.24707-6.70313,13.33458,13.33458,0,0,1,2.666-7.96,25.6441,25.6441,0,0,1,7.99805-6.81738,22.21062,22.21062,0,0,1-11.27344-8.79785,26.48321,26.48321,0,0,1-4.11328-14.96778,28.47192,28.47192,0,0,1,3.58008-14.54883,24.3419,24.3419,0,0,1,10.16894-9.55957,33.64736,33.64736,0,0,1,15.57715-3.38964q2.7422,0,4.98926.15234a38.29467,38.29467,0,0,1,4.15137.49512,22.60972,22.60972,0,0,1,3.42773.876h26.73633v5.48438l-17.0625,1.14258a28.772,28.772,0,0,1,5.02734,8.72168,29.08773,29.08773,0,0,1,1.67578,9.86425q0,12.33985-7.76953,19.57618-7.76952,7.23778-21.63281,7.23632a40.412,40.412,0,0,1-7.46484-.68554,28.9705,28.9705,0,0,0-7.084,5.52246,10.07867,10.07867,0,0,0-2.4375,6.89355,5.95537,5.95537,0,0,0,1.52344,4.22754,9.72468,9.72468,0,0,0,4.418,2.51367,24.73618,24.73618,0,0,0,7.084.876h14.54883q13.48242,0,20.64258,5.48438,7.15869,5.48436,7.16016,16.14843,0,13.0254-10.70215,20.18555Q955.75687,263.10205,936.10452,263.10352Zm.53321-6.47461q10.89258,0,18.167-2.36133,7.27295-2.36133,10.93066-6.96973a17.75042,17.75042,0,0,0,3.65625-11.38769q0-5.56056-2.666-8.60743a14.11248,14.11248,0,0,0-7.541-4.22753,49.31811,49.31811,0,0,0-11.502-1.18067H933.81937a36.07828,36.07828,0,0,0-11.80664,1.79,16.2181,16.2181,0,0,0-8.03613,5.67481q-2.85645,3.88476-2.85645,10.35937,0,8.30127,6.5127,12.60645Q924.14554,256.62744,936.63773,256.62891Zm2.4375-68.02149q10.2832,0,15.76758-5.17969t5.48437-15.00585q0-10.51173-5.63672-15.76758-5.63819-5.25587-15.76758-5.25586-9.82617,0-15.4248,5.59863t-5.59863,15.72949q0,9.44532,5.332,14.66309Q928.562,188.60742,939.07523,188.60742Z" style="fill:#fff"/><path d="M1030.253,141.22852q10.58643,0,17.63379,4.95117a29.66939,29.66939,0,0,1,10.51172,13.55859,52.50027,52.50027,0,0,1,3.46582,19.72852v5.56054h-59.79492q0,17.064,7.88379,26.20313,7.88379,9.14063,22.585,9.14062a62.45955,62.45955,0,0,0,13.36816-1.25683,68.76857,68.76857,0,0,0,12.60645-4.30371v7.084a58.4645,58.4645,0,0,1-12.1875,3.999,69.89278,69.89278,0,0,1-14.01563,1.25684q-12.56835,0-21.06152-5.21777a32.55171,32.55171,0,0,1-12.79688-14.73926q-4.30371-9.52149-4.30371-22.24219a57.21718,57.21718,0,0,1,4.15137-22.31836,35.731,35.731,0,0,1,12.1875-15.65332Q1018.52249,141.22852,1030.253,141.22852Zm-.07617,6.62695q-11.8828,0-19.2334,7.88379-7.35206,7.88379-8.64551,22.7373h51.56836a45.576,45.576,0,0,0-2.58984-15.99609,22.9659,22.9659,0,0,0-7.80762-10.77832Q1038.251,147.85693,1030.17679,147.85547Z" style="fill:#fff"/><path d="M1177.417,114.26367v72.0586a42.51273,42.51273,0,0,1-5.06542,20.75683,36.11175,36.11175,0,0,1-15.31055,14.66309q-10.24512,5.40966-25.78418,5.4082-22.09131,0-33.668-11.27344-11.57959-11.272-11.57813-29.85937V114.26367h23.53711V182.4375q0,13.78711,5.63672,19.34766t16.68164,5.56054q7.76953,0,12.60645-2.666a15.95183,15.95183,0,0,0,7.12207-8.22657q2.28516-5.55908,2.28516-14.168V114.26367Z" style="fill:#fff"/><path d="M1200.4971,225.627V114.26367h23.61328V225.627Z" style="fill:#fff"/></svg>