<svg xmlns="http://www.w3.org/2000/svg" xmlns:xlink="http://www.w3.org/1999/xlink" viewBox="0 0 400 400"><defs><linearGradient id="a" x1="37.5" y1="200" x2="362.5" y2="200" gradientUnits="userSpaceOnUse"><stop offset="0.00002" stop-color="#7109b6"/><stop offset="1" stop-color="#e81f71"/></linearGradient></defs><title>mergeui</title><path d="M352.5,37.5h-230a9.99991,9.99991,0,0,0-10,10v65h-65a9.99991,9.99991,0,0,0-10,10v230a10,10,0,0,0,10,10h230a10,10,0,0,0,10-10v-65h65a10,10,0,0,0,10-10V47.5A9.99991,9.99991,0,0,0,352.5,37.5Zm-98,300H70.5a7.99989,7.99989,0,0,1-8-8v-184a7.99989,7.99989,0,0,1,8-8h42v140a10,10,0,0,0,10,10h140v42A7.99989,7.99989,0,0,1,254.5,337.5Zm83-83a7.99989,7.99989,0,0,1-8,8h-42v-140a9.99991,9.99991,0,0,0-10-10h-140v-42a7.99989,7.99989,0,0,1,8-8h184a7.99989,7.99989,0,0,1,8,8Z" style="fill:url(#a)"/></svg>