<svg xmlns="http://www.w3.org/2000/svg" xmlns:xlink="http://www.w3.org/1999/xlink" viewBox="0 0 1200 400"><defs><linearGradient id="a" x1="70" y1="200" x2="370" y2="200" gradientUnits="userSpaceOnUse"><stop offset="0.00002" stop-color="#7109b6"/><stop offset="1" stop-color="#e81f71"/></linearGradient></defs><title>mergeui</title><path d="M360.76923,50H148.46154a9.23068,9.23068,0,0,0-9.23077,9.23077v60h-60A9.23068,9.23068,0,0,0,70,128.46154V340.76923A9.23072,9.23072,0,0,0,79.23077,350H291.53846a9.23072,9.23072,0,0,0,9.23077-9.23077v-60h60A9.23072,9.23072,0,0,0,370,271.53846V59.23077A9.23068,9.23068,0,0,0,360.76923,50ZM270.30769,326.92308H100.46154a7.38452,7.38452,0,0,1-7.38462-7.38462V149.69231a7.38452,7.38452,0,0,1,7.38462-7.38462h38.76923V271.53846a9.23072,9.23072,0,0,0,9.23077,9.23077H277.69231v38.76923A7.38452,7.38452,0,0,1,270.30769,326.92308Zm76.61539-76.61539a7.38452,7.38452,0,0,1-7.38462,7.38462H300.76923V128.46154a9.23068,9.23068,0,0,0-9.23077-9.23077H162.30769V80.46154a7.38452,7.38452,0,0,1,7.38462-7.38462H339.53846a7.38452,7.38452,0,0,1,7.38462,7.38462Z" style="fill:url(#a)"/><path d="M486.32227,252.64648,439.125,133.99414h-.43945q.17577,3.25343.30761,6.81152.13184,3.55957.21973,7.42676.08643,3.86865.08789,8.08594v96.32812H430.6875V124.15039h13.71094L489.92578,238.584h.52734L536.332,124.15039h13.35938V252.64648h-8.877V155.26367q0-3.42772.08789-7.03125.08643-3.60205.21973-7.16308.13184-3.55957.30762-6.89942h-.52735l-47.373,118.47656Z"/><path d="M626.50781,155.26367q12.21534,0,20.34668,5.71289a34.23623,34.23623,0,0,1,12.12891,15.64453,60.58044,60.58044,0,0,1,3.999,22.76368v6.416H593.98828q0,19.689,9.09668,30.23438,9.09667,10.54688,26.05957,10.54687a72.0692,72.0692,0,0,0,15.42481-1.45019,79.27154,79.27154,0,0,0,14.54589-4.96582v8.17382a67.45625,67.45625,0,0,1-14.0625,4.61426,80.64484,80.64484,0,0,1-16.17187,1.4502q-14.502,0-24.30176-6.02051A37.56291,37.56291,0,0,1,589.81348,231.377q-4.96582-10.98486-4.96582-25.66406a66.02526,66.02526,0,0,1,4.79-25.75195,41.22739,41.22739,0,0,1,14.0625-18.06153Q612.97266,155.26514,626.50781,155.26367Zm-.08789,7.64649q-13.71093,0-22.19238,9.09668-8.4829,9.09668-9.97559,26.23535h59.502a52.59176,52.59176,0,0,0-2.98829-18.457,26.50224,26.50224,0,0,0-9.00878-12.43653Q635.73632,162.91162,626.41992,162.91016Z"/><path d="M729.42773,155.43945a54.82827,54.82827,0,0,1,7.11915.43946,47.21806,47.21806,0,0,1,6.24023,1.23047l-1.40625,8.17382a44.62275,44.62275,0,0,0-5.88867-1.18652,48.98527,48.98527,0,0,0-6.416-.39551,27.63091,27.63091,0,0,0-12.085,2.54883,24.94567,24.94567,0,0,0-9.00879,7.29492,33.60584,33.60584,0,0,0-5.625,11.42578,53.69106,53.69106,0,0,0-1.93359,14.94141v52.73437H691.459v-95.5371h7.64649l.87891,18.01757h.52734a32.9134,32.9134,0,0,1,6.19629-9.97558,29.587,29.587,0,0,1,9.71191-7.0752A30.70269,30.70269,0,0,1,729.42773,155.43945Z"/><path d="M790.24805,295.88867q-18.01758,0-27.99317-6.94336t-9.97558-19.42383a24.56845,24.56845,0,0,1,6.06445-16.65527q6.06445-6.9873,16.43555-8.39355a17.97436,17.97436,0,0,1-6.72364-5.27344,12.25417,12.25417,0,0,1-2.59277-7.73438,15.38886,15.38886,0,0,1,3.07617-9.18457,29.60008,29.60008,0,0,1,9.22852-7.86621,25.62916,25.62916,0,0,1-13.00781-10.15136q-4.74611-7.16163-4.7461-17.27051a32.85626,32.85626,0,0,1,4.13086-16.78711,28.0928,28.0928,0,0,1,11.7334-11.03028,38.82236,38.82236,0,0,1,17.97363-3.91113q3.16407,0,5.75684.17578a44.14724,44.14724,0,0,1,4.79.57129,26.06183,26.06183,0,0,1,3.95508,1.01074h30.8496v6.32813l-19.6875,1.31836a33.19683,33.19683,0,0,1,5.80079,10.06348A33.5633,33.5633,0,0,1,827.25,186.11328q0,14.23828-8.96484,22.58789-8.96486,8.35107-24.96094,8.34961a46.63058,46.63058,0,0,1-8.61328-.791,33.45111,33.45111,0,0,0-8.17383,6.37207,11.62965,11.62965,0,0,0-2.8125,7.9541,6.869,6.869,0,0,0,1.75781,4.87793,11.22444,11.22444,0,0,0,5.09766,2.90039,28.50766,28.50766,0,0,0,8.17383,1.01074H805.541q15.55664,0,23.81836,6.32812,8.26025,6.32814,8.26171,18.63282,0,15.0293-12.34863,23.291T790.24805,295.88867Zm.61523-7.4707q12.56837,0,20.96192-2.72461,8.39208-2.72461,12.6123-8.041a20.48562,20.48562,0,0,0,4.21875-13.14062q0-6.416-3.07617-9.93164a16.28059,16.28059,0,0,0-8.70117-4.87793,56.95818,56.95818,0,0,0-13.27149-1.36231H787.61133a41.62494,41.62494,0,0,0-13.623,2.06543,18.72,18.72,0,0,0-9.27246,6.54785q-3.29591,4.48244-3.2959,11.95313,0,9.58008,7.51465,14.54687Q776.44923,288.416,790.86328,288.418Zm2.8125-78.48633q11.86524,0,18.19336-5.97656,6.32813-5.9751,6.32813-17.31446,0-12.1289-6.50391-18.19335Q805.188,162.38282,793.5,162.38281q-11.33788,0-17.79785,6.46t-6.46,18.14942q0,10.8999,6.15234,16.91894Q781.54542,209.93311,793.67578,209.93164Z"/><path d="M898.88086,155.26367q12.21533,0,20.34668,5.71289a34.23637,34.23637,0,0,1,12.12891,15.64453,60.58044,60.58044,0,0,1,3.999,22.76368v6.416H866.36133q0,19.689,9.09668,30.23438,9.09668,10.54688,26.05957,10.54687a72.069,72.069,0,0,0,15.4248-1.45019,79.27136,79.27136,0,0,0,14.5459-4.96582v8.17382a67.45645,67.45645,0,0,1-14.0625,4.61426,80.64491,80.64491,0,0,1-16.17187,1.4502q-14.502,0-24.30176-6.02051A37.56293,37.56293,0,0,1,862.18652,231.377q-4.96581-10.98486-4.96582-25.66406a66.02544,66.02544,0,0,1,4.79-25.75195,41.22746,41.22746,0,0,1,14.0625-18.06153Q885.3457,155.26514,898.88086,155.26367Zm-.08789,7.64649q-13.71095,0-22.19238,9.09668-8.48292,9.09668-9.97559,26.23535H926.127a52.592,52.592,0,0,0-2.98828-18.457,26.50225,26.50225,0,0,0-9.00879-12.43653Q908.10938,162.91162,898.793,162.91016Z"/><path d="M1068.68555,124.15039v83.14453a49.05051,49.05051,0,0,1-5.84473,23.9502,41.65991,41.65991,0,0,1-17.666,16.91894q-11.82128,6.24171-29.751,6.24024-25.48975,0-38.84766-13.00782-13.36083-13.00633-13.35937-34.45312v-82.793H990.375V202.8125q0,15.90967,6.50391,22.32422,6.50389,6.41748,19.248,6.416,8.96486,0,14.5459-3.07617a18.39832,18.39832,0,0,0,8.21777-9.49218q2.63673-6.41455,2.63672-16.34766V124.15039Z"/><path d="M1095.31641,252.64648V124.15039h27.24609V252.64648Z"/></svg>